# xmcd
#
# Track frame offsets: 
#        150
#        10602
#        23020
#        40507
#        51920
#        58805
#        71980
#        84077
#        91585
#        100217
#        118767
#        136710
#        150117
#        157802
#        164315
#        173575
#        182100
#        198902
#        208822
#        221362
#
# Disc length: 3115 seconds
#
# Revision: 21
# Processed by: cddbd v1.5.2PL0 Copyright (c) Steve Scherf et al.
# Submitted via: ExactAudioCopy v1.0b3
#
DISCID=f00c2914
DTITLE='Spider' John Koerner, Dave 'Snaker' Ray, and Tony 'Little Sun' G
DTITLE=lover - Blues, Rags and Hollers
DYEAR=1963
DGENRE=Folk
TTITLE0=Linin' Track
TTITLE1=Ramblin' Blues
TTITLE2=It's All Right
TTITLE3=Hangman
TTITLE4=Ted Mack Rag
TTITLE5=Down To Louisiana
TTITLE6=Creepy John
TTITLE7=Bugger Burns
TTITLE8=Sun's Wail
TTITLE9=Dust My Broom
TTITLE10=One Kind Favor
TTITLE11=Go Down Ol' Hannah
TTITLE12=Good Time Charlie
TTITLE13=Banjo Thing
TTITLE14=Stop That Thing
TTITLE15=Too Bad
TTITLE16=Snaker's Here
TTITLE17=Low Down Rounder
TTITLE18=Jimmy Bell
TTITLE19=Mumblin' Word
EXTD=
EXTT0=
EXTT1=
EXTT2=
EXTT3=
EXTT4=
EXTT5=
EXTT6=
EXTT7=
EXTT8=
EXTT9=
EXTT10=
EXTT11=
EXTT12=
EXTT13=
EXTT14=
EXTT15=
EXTT16=
EXTT17=
EXTT18=
EXTT19=
PLAYORDER=
